<svg xmlns="http://www.w3.org/2000/svg" xmlns:xlink="http://www.w3.org/1999/xlink" width="50" zoomAndPan="magnify" viewBox="0 0 37.5 37.499999" height="50" preserveAspectRatio="xMidYMid meet" version="1.0"><defs><clipPath id="19c16c691a"><path d="M 1.378906 1.378906 L 35.425781 1.378906 L 35.425781 35.425781 L 1.378906 35.425781 Z M 1.378906 1.378906 " clip-rule="nonzero"/></clipPath></defs><g clip-path="url(#19c16c691a)"><path fill="#ffffff" d="M 11.652344 28.773438 C 9.761719 28.773438 8.246094 30.304688 8.246094 32.199219 C 8.246094 34.089844 9.761719 35.621094 11.652344 35.621094 C 13.542969 35.621094 15.078125 34.089844 15.078125 32.199219 C 15.078125 30.304688 13.542969 28.773438 11.652344 28.773438 Z M 1.378906 1.378906 L 1.378906 4.804688 L 4.804688 4.804688 L 10.957031 17.789062 L 8.648438 21.984375 C 8.382812 22.480469 8.226562 23.039062 8.226562 23.636719 C 8.226562 25.527344 9.761719 27.0625 11.652344 27.0625 L 32.199219 27.0625 L 32.199219 23.636719 L 12.378906 23.636719 C 12.140625 23.636719 11.953125 23.449219 11.953125 23.210938 C 11.953125 23.132812 11.96875 23.0625 12.003906 23.003906 L 13.535156 20.210938 L 26.289062 20.210938 C 27.574219 20.210938 28.695312 19.503906 29.285156 18.449219 L 35.40625 7.335938 C 35.546875 7.097656 35.621094 6.816406 35.621094 6.515625 C 35.621094 5.566406 34.851562 4.804688 33.910156 4.804688 L 8.597656 4.804688 L 6.96875 1.378906 Z M 28.773438 28.773438 C 26.882812 28.773438 25.367188 30.304688 25.367188 32.199219 C 25.367188 34.089844 26.882812 35.621094 28.773438 35.621094 C 30.664062 35.621094 32.199219 34.089844 32.199219 32.199219 C 32.199219 30.304688 30.664062 28.773438 28.773438 28.773438 Z M 28.773438 28.773438 " fill-opacity="1" fill-rule="nonzero"/></g></svg>