<svg xmlns="http://www.w3.org/2000/svg" xmlns:xlink="http://www.w3.org/1999/xlink" width="50" zoomAndPan="magnify" viewBox="0 0 37.5 37.499999" height="50" preserveAspectRatio="xMidYMid meet" version="1.0"><defs><clipPath id="d0f965a4aa"><path d="M 0 2.757812 L 37 2.757812 L 37 34.585938 L 0 34.585938 Z M 0 2.757812 " clip-rule="nonzero"/></clipPath><clipPath id="f7f507f1ef"><path d="M 2.757812 2.757812 L 34.585938 2.757812 L 34.585938 34.585938 L 2.757812 34.585938 Z M 2.757812 2.757812 " clip-rule="nonzero"/></clipPath></defs><g clip-path="url(#d0f965a4aa)"><path fill="#ffffff" d="M 33.511719 5.632812 C 31.65625 3.777344 29.191406 2.757812 26.570312 2.757812 C 23.949219 2.757812 21.480469 3.777344 19.628906 5.632812 L 18.503906 6.757812 L 17.375 5.632812 C 15.523438 3.777344 13.058594 2.757812 10.433594 2.757812 C 7.8125 2.757812 5.347656 3.777344 3.492188 5.632812 C -0.335938 9.460938 -0.335938 15.6875 3.492188 19.515625 L 18.015625 34.035156 C 18.148438 34.171875 18.324219 34.238281 18.503906 34.238281 C 18.679688 34.238281 18.855469 34.171875 18.988281 34.035156 L 33.511719 19.515625 C 37.339844 15.6875 37.339844 9.460938 33.511719 5.632812 Z M 33.511719 5.632812 " fill-opacity="1" fill-rule="nonzero"/></g><g clip-path="url(#f7f507f1ef)"><path fill="#000000" d="M 19.796875 18.699219 L 34.261719 4.285156 C 34.585938 3.964844 34.585938 3.480469 34.261719 3.160156 C 33.941406 2.839844 33.460938 2.839844 33.136719 3.160156 L 18.671875 17.574219 L 4.257812 3.105469 C 3.9375 2.785156 3.457031 2.785156 3.132812 3.105469 C 2.8125 3.429688 2.8125 3.910156 3.132812 4.230469 L 17.546875 18.699219 L 3.082031 33.109375 C 2.757812 33.433594 2.757812 33.914062 3.082031 34.234375 C 3.402344 34.558594 3.9375 34.558594 4.207031 34.234375 L 18.671875 19.824219 L 33.085938 34.234375 C 33.246094 34.398438 33.460938 34.449219 33.671875 34.449219 C 33.886719 34.449219 34.101562 34.34375 34.261719 34.234375 C 34.585938 33.914062 34.585938 33.433594 34.261719 33.109375 Z M 19.796875 18.699219 " fill-opacity="1" fill-rule="nonzero"/></g></svg>