<svg xmlns="http://www.w3.org/2000/svg" xmlns:xlink="http://www.w3.org/1999/xlink" width="50" zoomAndPan="magnify" viewBox="0 0 37.5 37.499999" height="50" preserveAspectRatio="xMidYMid meet" version="1.0"><defs><clipPath id="abd605e01e"><path d="M 0 2.757812 L 37 2.757812 L 37 34.585938 L 0 34.585938 Z M 0 2.757812 " clip-rule="nonzero"/></clipPath></defs><g clip-path="url(#abd605e01e)"><path fill="#ffffff" d="M 33.511719 5.632812 C 31.65625 3.777344 29.191406 2.757812 26.570312 2.757812 C 23.949219 2.757812 21.480469 3.777344 19.628906 5.632812 L 18.503906 6.757812 L 17.375 5.632812 C 15.523438 3.777344 13.058594 2.757812 10.433594 2.757812 C 7.8125 2.757812 5.347656 3.777344 3.492188 5.632812 C -0.335938 9.460938 -0.335938 15.6875 3.492188 19.515625 L 18.015625 34.035156 C 18.148438 34.171875 18.324219 34.238281 18.503906 34.238281 C 18.679688 34.238281 18.855469 34.171875 18.988281 34.035156 L 33.511719 19.515625 C 37.339844 15.6875 37.339844 9.460938 33.511719 5.632812 Z M 33.511719 5.632812 " fill-opacity="1" fill-rule="nonzero"/></g></svg>