<svg xmlns="http://www.w3.org/2000/svg" xmlns:xlink="http://www.w3.org/1999/xlink" width="300" zoomAndPan="magnify" viewBox="0 0 224.87999 67.499998" height="90" preserveAspectRatio="xMidYMid meet" version="1.0"><defs><g/></defs><g fill="#ffffff" fill-opacity="1"><g transform="translate(2.320154, 25.814663)"><g><path d="M 1.40625 -3.359375 L 1.40625 -10.734375 L 0.125 -10.734375 L 0.125 -11.15625 L 1.40625 -11.15625 L 1.40625 -14.1875 L 5.765625 -15.265625 L 5.765625 -11.15625 L 8.8125 -11.15625 L 8.8125 -10.734375 L 5.765625 -10.734375 L 5.765625 -2.84375 C 5.765625 -2.101562 5.835938 -1.5625 5.984375 -1.21875 C 6.140625 -0.875 6.453125 -0.703125 6.921875 -0.703125 C 7.390625 -0.703125 7.796875 -0.9375 8.140625 -1.40625 C 8.492188 -1.875 8.726562 -2.515625 8.84375 -3.328125 L 9.234375 -3.28125 C 9.109375 -2.207031 8.765625 -1.351562 8.203125 -0.71875 C 7.640625 -0.0820312 6.707031 0.234375 5.40625 0.234375 C 4.113281 0.234375 3.125 -0.0195312 2.4375 -0.53125 C 1.75 -1.050781 1.40625 -1.992188 1.40625 -3.359375 Z M 1.40625 -3.359375 "/></g></g></g><g fill="#ffffff" fill-opacity="1"><g transform="translate(11.559971, 25.814663)"><g><path d="M 0.234375 -17.59375 L 5.890625 -17.59375 L 5.890625 -9 C 6.140625 -9.71875 6.519531 -10.296875 7.03125 -10.734375 C 7.550781 -11.171875 8.332031 -11.390625 9.375 -11.390625 C 11.800781 -11.390625 13.015625 -10.085938 13.015625 -7.484375 L 13.015625 -0.421875 L 14.328125 -0.421875 L 14.328125 0 L 7.6875 0 L 7.6875 -0.421875 L 8.65625 -0.421875 L 8.65625 -8.046875 C 8.65625 -8.984375 8.59375 -9.585938 8.46875 -9.859375 C 8.34375 -10.128906 8.113281 -10.265625 7.78125 -10.265625 C 7.28125 -10.265625 6.835938 -9.9375 6.453125 -9.28125 C 6.078125 -8.625 5.890625 -7.828125 5.890625 -6.890625 L 5.890625 -0.421875 L 6.890625 -0.421875 L 6.890625 0 L 0.234375 0 L 0.234375 -0.421875 L 1.53125 -0.421875 L 1.53125 -17.171875 L 0.234375 -17.171875 Z M 0.234375 -17.59375 "/></g></g></g><g fill="#ffffff" fill-opacity="1"><g transform="translate(26.005985, 25.814663)"><g><path d="M 6.40625 0.234375 C 4.382812 0.234375 2.867188 -0.285156 1.859375 -1.328125 C 0.859375 -2.367188 0.359375 -3.8125 0.359375 -5.65625 C 0.359375 -7.507812 0.921875 -8.925781 2.046875 -9.90625 C 3.179688 -10.894531 4.625 -11.390625 6.375 -11.390625 C 9.925781 -11.390625 11.628906 -9.609375 11.484375 -6.046875 L 4.875 -6.046875 L 4.875 -5.140625 C 4.875 -3.609375 5.066406 -2.453125 5.453125 -1.671875 C 5.847656 -0.890625 6.53125 -0.5 7.5 -0.5 C 9.3125 -0.5 10.5 -1.46875 11.0625 -3.40625 L 11.484375 -3.328125 C 11.191406 -2.203125 10.65625 -1.328125 9.875 -0.703125 C 9.101562 -0.078125 7.945312 0.234375 6.40625 0.234375 Z M 4.90625 -6.515625 L 7.3125 -6.515625 L 7.3125 -7.671875 C 7.3125 -8.929688 7.238281 -9.789062 7.09375 -10.25 C 6.945312 -10.71875 6.648438 -10.953125 6.203125 -10.953125 C 5.753906 -10.953125 5.425781 -10.703125 5.21875 -10.203125 C 5.007812 -9.710938 4.90625 -8.867188 4.90625 -7.671875 Z M 4.90625 -6.515625 "/></g></g></g><g fill="#ffffff" fill-opacity="1"><g transform="translate(28.38245, 50.366018)"><g><path d="M 12.625 -9.046875 C 12.625 -11.359375 12.507812 -12.910156 12.28125 -13.703125 C 12.0625 -14.503906 11.625 -14.90625 10.96875 -14.90625 C 10.320312 -14.90625 9.738281 -14.484375 9.21875 -13.640625 C 8.707031 -12.804688 8.453125 -11.679688 8.453125 -10.265625 L 8.453125 -4.109375 C 8.453125 -3.140625 8.640625 -2.316406 9.015625 -1.640625 C 9.398438 -0.972656 9.960938 -0.640625 10.703125 -0.640625 C 11.441406 -0.640625 11.945312 -1.128906 12.21875 -2.109375 C 12.488281 -3.097656 12.625 -4.828125 12.625 -7.296875 Z M 8.375 -16.015625 L 8.375 -13.359375 C 9.25 -15.359375 10.800781 -16.359375 13.03125 -16.359375 C 14.957031 -16.359375 16.453125 -15.660156 17.515625 -14.265625 C 18.578125 -12.878906 19.109375 -10.769531 19.109375 -7.9375 C 19.109375 -5.113281 18.53125 -3.023438 17.375 -1.671875 C 16.226562 -0.328125 14.5 0.34375 12.1875 0.34375 C 11.101562 0.34375 10.289062 0.207031 9.75 -0.0625 C 9.21875 -0.332031 8.785156 -0.75 8.453125 -1.3125 L 8.453125 7.40625 L 12.796875 7.40625 L 12.796875 8.015625 L 0.34375 8.015625 L 0.34375 7.40625 L 2.1875 7.40625 L 2.1875 -15.421875 L 0.40625 -15.421875 L 0.40625 -16.015625 Z M 8.375 -16.015625 "/></g></g></g><g fill="#ffffff" fill-opacity="1"><g transform="translate(48.173877, 50.366018)"><g><path d="M 0.34375 -25.25 L 8.453125 -25.25 L 8.453125 -12.921875 C 8.804688 -13.953125 9.351562 -14.78125 10.09375 -15.40625 C 10.832031 -16.039062 11.957031 -16.359375 13.46875 -16.359375 C 16.9375 -16.359375 18.671875 -14.484375 18.671875 -10.734375 L 18.671875 -0.609375 L 20.5625 -0.609375 L 20.5625 0 L 11.046875 0 L 11.046875 -0.609375 L 12.421875 -0.609375 L 12.421875 -11.546875 C 12.421875 -12.890625 12.328125 -13.753906 12.140625 -14.140625 C 11.960938 -14.535156 11.640625 -14.734375 11.171875 -14.734375 C 10.453125 -14.734375 9.816406 -14.265625 9.265625 -13.328125 C 8.722656 -12.390625 8.453125 -11.242188 8.453125 -9.890625 L 8.453125 -0.609375 L 9.890625 -0.609375 L 9.890625 0 L 0.34375 0 L 0.34375 -0.609375 L 2.1875 -0.609375 L 2.1875 -24.640625 L 0.34375 -24.640625 Z M 0.34375 -25.25 "/></g></g></g><g fill="#ffffff" fill-opacity="1"><g transform="translate(68.907756, 50.366018)"><g><path d="M 5.28125 -18.34375 C 4.09375 -18.34375 3.242188 -18.644531 2.734375 -19.25 C 2.234375 -19.851562 1.984375 -20.601562 1.984375 -21.5 C 1.984375 -22.40625 2.257812 -23.148438 2.8125 -23.734375 C 3.363281 -24.316406 4.195312 -24.609375 5.3125 -24.609375 C 6.4375 -24.609375 7.289062 -24.34375 7.875 -23.8125 C 8.457031 -23.28125 8.75 -22.523438 8.75 -21.546875 C 8.75 -20.578125 8.46875 -19.800781 7.90625 -19.21875 C 7.34375 -18.632812 6.46875 -18.34375 5.28125 -18.34375 Z M 0.203125 -16.015625 L 8.453125 -16.015625 L 8.453125 -0.609375 L 10.328125 -0.609375 L 10.328125 0 L 0.34375 0 L 0.34375 -0.609375 L 2.1875 -0.609375 L 2.1875 -15.421875 L 0.203125 -15.421875 Z M 0.203125 -16.015625 "/></g></g></g><g fill="#ffffff" fill-opacity="1"><g transform="translate(79.577622, 50.366018)"><g><path d="M 0.203125 -25.25 L 8.453125 -25.25 L 8.453125 -0.609375 L 10.328125 -0.609375 L 10.328125 0 L 0.34375 0 L 0.34375 -0.609375 L 2.1875 -0.609375 L 2.1875 -24.640625 L 0.203125 -24.640625 Z M 0.203125 -25.25 "/></g></g></g><g fill="#ffffff" fill-opacity="1"><g transform="translate(90.213834, 50.366018)"><g><path d="M 11.203125 -6.625 L 11.203125 -9.484375 C 11.203125 -11.660156 11.082031 -13.25 10.84375 -14.25 C 10.613281 -15.25 10.070312 -15.75 9.21875 -15.75 C 8.726562 -15.75 8.332031 -15.609375 8.03125 -15.328125 C 7.726562 -15.046875 7.507812 -14.582031 7.375 -13.9375 C 7.164062 -12.925781 7.0625 -11.390625 7.0625 -9.328125 L 7.0625 -6.703125 C 7.0625 -4.253906 7.132812 -2.78125 7.28125 -2.28125 C 7.425781 -1.789062 7.578125 -1.390625 7.734375 -1.078125 C 7.984375 -0.535156 8.46875 -0.265625 9.1875 -0.265625 C 10.0625 -0.265625 10.632812 -0.769531 10.90625 -1.78125 C 11.101562 -2.5 11.203125 -4.113281 11.203125 -6.625 Z M 9.125 0.34375 C 6.3125 0.34375 4.1875 -0.375 2.75 -1.8125 C 1.320312 -3.25 0.609375 -5.304688 0.609375 -7.984375 C 0.609375 -10.671875 1.375 -12.738281 2.90625 -14.1875 C 4.445312 -15.632812 6.609375 -16.359375 9.390625 -16.359375 C 12.171875 -16.359375 14.242188 -15.691406 15.609375 -14.359375 C 16.984375 -13.023438 17.671875 -10.988281 17.671875 -8.25 C 17.671875 -2.519531 14.820312 0.34375 9.125 0.34375 Z M 9.125 0.34375 "/></g></g></g><g fill="#ffffff" fill-opacity="1"><g transform="translate(108.490608, 50.366018)"><g><path d="M 1.109375 0.34375 L 1.109375 -5.6875 L 1.515625 -5.6875 C 2.097656 -3.738281 2.878906 -2.367188 3.859375 -1.578125 C 4.847656 -0.796875 6.085938 -0.40625 7.578125 -0.40625 C 9.859375 -0.40625 11 -1.132812 11 -2.59375 C 11 -3.21875 10.722656 -3.6875 10.171875 -4 C 9.296875 -4.5 8.171875 -4.882812 6.796875 -5.15625 C 5.273438 -5.550781 4 -6.085938 2.96875 -6.765625 C 1.726562 -7.566406 1.109375 -8.84375 1.109375 -10.59375 C 1.109375 -12.351562 1.644531 -13.753906 2.71875 -14.796875 C 3.800781 -15.835938 5.238281 -16.359375 7.03125 -16.359375 C 8.132812 -16.359375 9.269531 -16.097656 10.4375 -15.578125 C 10.863281 -15.398438 11.1875 -15.3125 11.40625 -15.3125 C 11.632812 -15.3125 11.828125 -15.390625 11.984375 -15.546875 C 12.140625 -15.703125 12.328125 -15.992188 12.546875 -16.421875 L 12.921875 -16.421875 L 12.921875 -11.28125 L 12.515625 -11.28125 C 11.367188 -14.195312 9.597656 -15.65625 7.203125 -15.65625 C 6.148438 -15.65625 5.363281 -15.46875 4.84375 -15.09375 C 4.332031 -14.726562 4.078125 -14.265625 4.078125 -13.703125 C 4.078125 -13.359375 4.15625 -13.09375 4.3125 -12.90625 C 4.46875 -12.71875 4.585938 -12.578125 4.671875 -12.484375 C 4.765625 -12.398438 4.910156 -12.304688 5.109375 -12.203125 C 5.316406 -12.097656 5.488281 -12.015625 5.625 -11.953125 C 5.757812 -11.898438 5.960938 -11.828125 6.234375 -11.734375 C 6.515625 -11.648438 6.722656 -11.597656 6.859375 -11.578125 C 8.390625 -11.191406 9.488281 -10.859375 10.15625 -10.578125 C 10.832031 -10.304688 11.472656 -9.96875 12.078125 -9.5625 C 13.316406 -8.707031 13.9375 -7.332031 13.9375 -5.4375 C 13.9375 -3.539062 13.375 -2.101562 12.25 -1.125 C 11.125 -0.144531 9.585938 0.34375 7.640625 0.34375 C 6.242188 0.34375 4.894531 0.015625 3.59375 -0.640625 C 3.332031 -0.816406 3.125 -0.90625 2.96875 -0.90625 C 2.46875 -0.90625 1.984375 -0.488281 1.515625 0.34375 Z M 1.109375 0.34375 "/></g></g></g><g fill="#ffffff" fill-opacity="1"><g transform="translate(123.09857, 50.366018)"><g><path d="M 11.203125 -6.625 L 11.203125 -9.484375 C 11.203125 -11.660156 11.082031 -13.25 10.84375 -14.25 C 10.613281 -15.25 10.070312 -15.75 9.21875 -15.75 C 8.726562 -15.75 8.332031 -15.609375 8.03125 -15.328125 C 7.726562 -15.046875 7.507812 -14.582031 7.375 -13.9375 C 7.164062 -12.925781 7.0625 -11.390625 7.0625 -9.328125 L 7.0625 -6.703125 C 7.0625 -4.253906 7.132812 -2.78125 7.28125 -2.28125 C 7.425781 -1.789062 7.578125 -1.390625 7.734375 -1.078125 C 7.984375 -0.535156 8.46875 -0.265625 9.1875 -0.265625 C 10.0625 -0.265625 10.632812 -0.769531 10.90625 -1.78125 C 11.101562 -2.5 11.203125 -4.113281 11.203125 -6.625 Z M 9.125 0.34375 C 6.3125 0.34375 4.1875 -0.375 2.75 -1.8125 C 1.320312 -3.25 0.609375 -5.304688 0.609375 -7.984375 C 0.609375 -10.671875 1.375 -12.738281 2.90625 -14.1875 C 4.445312 -15.632812 6.609375 -16.359375 9.390625 -16.359375 C 12.171875 -16.359375 14.242188 -15.691406 15.609375 -14.359375 C 16.984375 -13.023438 17.671875 -10.988281 17.671875 -8.25 C 17.671875 -2.519531 14.820312 0.34375 9.125 0.34375 Z M 9.125 0.34375 "/></g></g></g><g fill="#ffffff" fill-opacity="1"><g transform="translate(141.375344, 50.366018)"><g><path d="M 12.625 -9.046875 C 12.625 -11.359375 12.507812 -12.910156 12.28125 -13.703125 C 12.0625 -14.503906 11.625 -14.90625 10.96875 -14.90625 C 10.320312 -14.90625 9.738281 -14.484375 9.21875 -13.640625 C 8.707031 -12.804688 8.453125 -11.679688 8.453125 -10.265625 L 8.453125 -4.109375 C 8.453125 -3.140625 8.640625 -2.316406 9.015625 -1.640625 C 9.398438 -0.972656 9.960938 -0.640625 10.703125 -0.640625 C 11.441406 -0.640625 11.945312 -1.128906 12.21875 -2.109375 C 12.488281 -3.097656 12.625 -4.828125 12.625 -7.296875 Z M 8.375 -16.015625 L 8.375 -13.359375 C 9.25 -15.359375 10.800781 -16.359375 13.03125 -16.359375 C 14.957031 -16.359375 16.453125 -15.660156 17.515625 -14.265625 C 18.578125 -12.878906 19.109375 -10.769531 19.109375 -7.9375 C 19.109375 -5.113281 18.53125 -3.023438 17.375 -1.671875 C 16.226562 -0.328125 14.5 0.34375 12.1875 0.34375 C 11.101562 0.34375 10.289062 0.207031 9.75 -0.0625 C 9.21875 -0.332031 8.785156 -0.75 8.453125 -1.3125 L 8.453125 7.40625 L 12.796875 7.40625 L 12.796875 8.015625 L 0.34375 8.015625 L 0.34375 7.40625 L 2.1875 7.40625 L 2.1875 -15.421875 L 0.40625 -15.421875 L 0.40625 -16.015625 Z M 8.375 -16.015625 "/></g></g></g><g fill="#ffffff" fill-opacity="1"><g transform="translate(161.166771, 50.366018)"><g><path d="M 0.34375 -25.25 L 8.453125 -25.25 L 8.453125 -12.921875 C 8.804688 -13.953125 9.351562 -14.78125 10.09375 -15.40625 C 10.832031 -16.039062 11.957031 -16.359375 13.46875 -16.359375 C 16.9375 -16.359375 18.671875 -14.484375 18.671875 -10.734375 L 18.671875 -0.609375 L 20.5625 -0.609375 L 20.5625 0 L 11.046875 0 L 11.046875 -0.609375 L 12.421875 -0.609375 L 12.421875 -11.546875 C 12.421875 -12.890625 12.328125 -13.753906 12.140625 -14.140625 C 11.960938 -14.535156 11.640625 -14.734375 11.171875 -14.734375 C 10.453125 -14.734375 9.816406 -14.265625 9.265625 -13.328125 C 8.722656 -12.390625 8.453125 -11.242188 8.453125 -9.890625 L 8.453125 -0.609375 L 9.890625 -0.609375 L 9.890625 0 L 0.34375 0 L 0.34375 -0.609375 L 2.1875 -0.609375 L 2.1875 -24.640625 L 0.34375 -24.640625 Z M 0.34375 -25.25 "/></g></g></g><g fill="#ffffff" fill-opacity="1"><g transform="translate(181.900649, 50.366018)"><g><path d="M 9.1875 0.34375 C 6.289062 0.34375 4.117188 -0.398438 2.671875 -1.890625 C 1.222656 -3.390625 0.5 -5.46875 0.5 -8.125 C 0.5 -10.78125 1.3125 -12.816406 2.9375 -14.234375 C 4.570312 -15.648438 6.644531 -16.359375 9.15625 -16.359375 C 14.25 -16.359375 16.691406 -13.800781 16.484375 -8.6875 L 7 -8.6875 L 7 -7.375 C 7 -5.175781 7.28125 -3.515625 7.84375 -2.390625 C 8.40625 -1.265625 9.378906 -0.703125 10.765625 -0.703125 C 13.367188 -0.703125 15.078125 -2.09375 15.890625 -4.875 L 16.484375 -4.78125 C 16.066406 -3.164062 15.300781 -1.90625 14.1875 -1 C 13.070312 -0.101562 11.40625 0.34375 9.1875 0.34375 Z M 7.03125 -9.359375 L 10.5 -9.359375 L 10.5 -11 C 10.5 -12.820312 10.390625 -14.0625 10.171875 -14.71875 C 9.960938 -15.382812 9.535156 -15.71875 8.890625 -15.71875 C 8.253906 -15.71875 7.785156 -15.363281 7.484375 -14.65625 C 7.179688 -13.945312 7.03125 -12.726562 7.03125 -11 Z M 7.03125 -9.359375 "/></g></g></g><g fill="#ffffff" fill-opacity="1"><g transform="translate(199.268633, 50.366018)"><g><path d="M 11.578125 -15.078125 C 10.742188 -15.078125 10.015625 -14.535156 9.390625 -13.453125 C 8.765625 -12.378906 8.453125 -11.101562 8.453125 -9.625 L 8.453125 -0.609375 L 10.84375 -0.609375 L 10.84375 0 L 0.34375 0 L 0.34375 -0.609375 L 2.1875 -0.609375 L 2.1875 -15.421875 L 0.34375 -15.421875 L 0.34375 -16.015625 L 8.453125 -16.015625 L 8.453125 -12.796875 C 8.742188 -13.929688 9.300781 -14.804688 10.125 -15.421875 C 10.957031 -16.046875 11.898438 -16.359375 12.953125 -16.359375 C 14.015625 -16.359375 14.875 -16.0625 15.53125 -15.46875 C 16.195312 -14.875 16.53125 -14.03125 16.53125 -12.9375 C 16.53125 -11.851562 16.28125 -11.019531 15.78125 -10.4375 C 15.289062 -9.851562 14.535156 -9.5625 13.515625 -9.5625 C 12.492188 -9.5625 11.738281 -9.894531 11.25 -10.5625 C 10.769531 -11.238281 10.710938 -12.171875 11.078125 -13.359375 L 12.28125 -13.359375 C 12.84375 -14.503906 12.609375 -15.078125 11.578125 -15.078125 Z M 11.578125 -15.078125 "/></g></g></g><g fill="#ffffff" fill-opacity="1"><g transform="translate(47.318714, 60.970957)"><g><path d="M 5.046875 -3.28125 C 5.460938 -3.1875 5.785156 -3.003906 6.015625 -2.734375 C 6.242188 -2.472656 6.359375 -2.128906 6.359375 -1.703125 C 6.359375 -1.148438 6.15625 -0.726562 5.75 -0.4375 C 5.34375 -0.144531 4.75 0 3.96875 0 L 1.03125 0 L 1.03125 -6.359375 L 3.78125 -6.359375 C 4.488281 -6.359375 5.035156 -6.21875 5.421875 -5.9375 C 5.816406 -5.65625 6.015625 -5.253906 6.015625 -4.734375 C 6.015625 -4.378906 5.925781 -4.078125 5.75 -3.828125 C 5.582031 -3.585938 5.347656 -3.40625 5.046875 -3.28125 Z M 1.703125 -5.8125 L 1.703125 -3.5 L 3.734375 -3.5 C 4.253906 -3.5 4.648438 -3.597656 4.921875 -3.796875 C 5.203125 -3.992188 5.34375 -4.28125 5.34375 -4.65625 C 5.34375 -5.03125 5.203125 -5.316406 4.921875 -5.515625 C 4.648438 -5.710938 4.253906 -5.8125 3.734375 -5.8125 Z M 3.953125 -0.5625 C 4.523438 -0.5625 4.957031 -0.65625 5.25 -0.84375 C 5.539062 -1.039062 5.6875 -1.34375 5.6875 -1.75 C 5.6875 -2.550781 5.109375 -2.953125 3.953125 -2.953125 L 1.703125 -2.953125 L 1.703125 -0.5625 Z M 3.953125 -0.5625 "/></g></g></g><g fill="#ffffff" fill-opacity="1"><g transform="translate(57.558132, 60.970957)"><g><path d="M 3.8125 0.046875 C 3.1875 0.046875 2.617188 -0.09375 2.109375 -0.375 C 1.597656 -0.65625 1.195312 -1.039062 0.90625 -1.53125 C 0.613281 -2.019531 0.46875 -2.570312 0.46875 -3.1875 C 0.46875 -3.789062 0.613281 -4.335938 0.90625 -4.828125 C 1.195312 -5.328125 1.597656 -5.71875 2.109375 -6 C 2.617188 -6.28125 3.1875 -6.421875 3.8125 -6.421875 C 4.445312 -6.421875 5.015625 -6.28125 5.515625 -6 C 6.023438 -5.71875 6.425781 -5.328125 6.71875 -4.828125 C 7.007812 -4.335938 7.15625 -3.789062 7.15625 -3.1875 C 7.15625 -2.570312 7.007812 -2.015625 6.71875 -1.515625 C 6.425781 -1.023438 6.023438 -0.640625 5.515625 -0.359375 C 5.015625 -0.0859375 4.445312 0.046875 3.8125 0.046875 Z M 3.8125 -0.546875 C 4.320312 -0.546875 4.78125 -0.660156 5.1875 -0.890625 C 5.59375 -1.117188 5.910156 -1.429688 6.140625 -1.828125 C 6.367188 -2.234375 6.484375 -2.6875 6.484375 -3.1875 C 6.484375 -3.675781 6.367188 -4.125 6.140625 -4.53125 C 5.910156 -4.9375 5.59375 -5.25 5.1875 -5.46875 C 4.78125 -5.695312 4.320312 -5.8125 3.8125 -5.8125 C 3.3125 -5.8125 2.859375 -5.695312 2.453125 -5.46875 C 2.046875 -5.25 1.722656 -4.9375 1.484375 -4.53125 C 1.253906 -4.125 1.140625 -3.675781 1.140625 -3.1875 C 1.140625 -2.6875 1.253906 -2.234375 1.484375 -1.828125 C 1.722656 -1.429688 2.046875 -1.117188 2.453125 -0.890625 C 2.859375 -0.660156 3.3125 -0.546875 3.8125 -0.546875 Z M 3.8125 -0.546875 "/></g></g></g><g fill="#ffffff" fill-opacity="1"><g transform="translate(68.569535, 60.970957)"><g><path d="M 3.8125 0.046875 C 3.1875 0.046875 2.617188 -0.09375 2.109375 -0.375 C 1.597656 -0.65625 1.195312 -1.039062 0.90625 -1.53125 C 0.613281 -2.019531 0.46875 -2.570312 0.46875 -3.1875 C 0.46875 -3.789062 0.613281 -4.335938 0.90625 -4.828125 C 1.195312 -5.328125 1.597656 -5.71875 2.109375 -6 C 2.617188 -6.28125 3.1875 -6.421875 3.8125 -6.421875 C 4.445312 -6.421875 5.015625 -6.28125 5.515625 -6 C 6.023438 -5.71875 6.425781 -5.328125 6.71875 -4.828125 C 7.007812 -4.335938 7.15625 -3.789062 7.15625 -3.1875 C 7.15625 -2.570312 7.007812 -2.015625 6.71875 -1.515625 C 6.425781 -1.023438 6.023438 -0.640625 5.515625 -0.359375 C 5.015625 -0.0859375 4.445312 0.046875 3.8125 0.046875 Z M 3.8125 -0.546875 C 4.320312 -0.546875 4.78125 -0.660156 5.1875 -0.890625 C 5.59375 -1.117188 5.910156 -1.429688 6.140625 -1.828125 C 6.367188 -2.234375 6.484375 -2.6875 6.484375 -3.1875 C 6.484375 -3.675781 6.367188 -4.125 6.140625 -4.53125 C 5.910156 -4.9375 5.59375 -5.25 5.1875 -5.46875 C 4.78125 -5.695312 4.320312 -5.8125 3.8125 -5.8125 C 3.3125 -5.8125 2.859375 -5.695312 2.453125 -5.46875 C 2.046875 -5.25 1.722656 -4.9375 1.484375 -4.53125 C 1.253906 -4.125 1.140625 -3.675781 1.140625 -3.1875 C 1.140625 -2.6875 1.253906 -2.234375 1.484375 -1.828125 C 1.722656 -1.429688 2.046875 -1.117188 2.453125 -0.890625 C 2.859375 -0.660156 3.3125 -0.546875 3.8125 -0.546875 Z M 3.8125 -0.546875 "/></g></g></g><g fill="#ffffff" fill-opacity="1"><g transform="translate(79.580939, 60.970957)"><g><path d="M 3.015625 -2.984375 L 1.703125 -1.671875 L 1.703125 0 L 1.03125 0 L 1.03125 -6.359375 L 1.703125 -6.359375 L 1.703125 -2.515625 L 5.453125 -6.359375 L 6.21875 -6.359375 L 3.46875 -3.484375 L 6.40625 0 L 5.609375 0 Z M 3.015625 -2.984375 "/></g></g></g><g fill="#ffffff" fill-opacity="1"><g transform="translate(89.429826, 60.970957)"><g><path d="M 2.796875 0.046875 C 2.316406 0.046875 1.859375 -0.0234375 1.421875 -0.171875 C 0.992188 -0.328125 0.660156 -0.523438 0.421875 -0.765625 L 0.6875 -1.296875 C 0.914062 -1.066406 1.222656 -0.878906 1.609375 -0.734375 C 1.992188 -0.585938 2.390625 -0.515625 2.796875 -0.515625 C 3.359375 -0.515625 3.78125 -0.617188 4.0625 -0.828125 C 4.351562 -1.035156 4.5 -1.304688 4.5 -1.640625 C 4.5 -1.898438 4.421875 -2.101562 4.265625 -2.25 C 4.109375 -2.40625 3.914062 -2.523438 3.6875 -2.609375 C 3.46875 -2.691406 3.160156 -2.78125 2.765625 -2.875 C 2.285156 -3 1.898438 -3.113281 1.609375 -3.21875 C 1.328125 -3.332031 1.082031 -3.503906 0.875 -3.734375 C 0.675781 -3.960938 0.578125 -4.273438 0.578125 -4.671875 C 0.578125 -4.992188 0.660156 -5.285156 0.828125 -5.546875 C 1.003906 -5.816406 1.265625 -6.03125 1.609375 -6.1875 C 1.960938 -6.34375 2.398438 -6.421875 2.921875 -6.421875 C 3.285156 -6.421875 3.640625 -6.367188 3.984375 -6.265625 C 4.335938 -6.171875 4.644531 -6.035156 4.90625 -5.859375 L 4.671875 -5.3125 C 4.410156 -5.488281 4.125 -5.617188 3.8125 -5.703125 C 3.507812 -5.796875 3.210938 -5.84375 2.921875 -5.84375 C 2.367188 -5.84375 1.953125 -5.734375 1.671875 -5.515625 C 1.390625 -5.304688 1.25 -5.03125 1.25 -4.6875 C 1.25 -4.4375 1.320312 -4.234375 1.46875 -4.078125 C 1.625 -3.921875 1.816406 -3.800781 2.046875 -3.71875 C 2.285156 -3.632812 2.601562 -3.546875 3 -3.453125 C 3.46875 -3.335938 3.84375 -3.222656 4.125 -3.109375 C 4.414062 -3.003906 4.660156 -2.835938 4.859375 -2.609375 C 5.066406 -2.378906 5.171875 -2.070312 5.171875 -1.6875 C 5.171875 -1.363281 5.082031 -1.066406 4.90625 -0.796875 C 4.726562 -0.535156 4.460938 -0.328125 4.109375 -0.171875 C 3.753906 -0.0234375 3.316406 0.046875 2.796875 0.046875 Z M 2.796875 0.046875 "/></g></g></g><g fill="#ffffff" fill-opacity="1"><g transform="translate(98.406824, 60.970957)"><g><path d="M 2.28125 -5.78125 L 0.03125 -5.78125 L 0.03125 -6.359375 L 5.1875 -6.359375 L 5.1875 -5.78125 L 2.953125 -5.78125 L 2.953125 0 L 2.28125 0 Z M 2.28125 -5.78125 "/></g></g></g><g fill="#ffffff" fill-opacity="1"><g transform="translate(107.011457, 60.970957)"><g><path d="M 3.8125 0.046875 C 3.1875 0.046875 2.617188 -0.09375 2.109375 -0.375 C 1.597656 -0.65625 1.195312 -1.039062 0.90625 -1.53125 C 0.613281 -2.019531 0.46875 -2.570312 0.46875 -3.1875 C 0.46875 -3.789062 0.613281 -4.335938 0.90625 -4.828125 C 1.195312 -5.328125 1.597656 -5.71875 2.109375 -6 C 2.617188 -6.28125 3.1875 -6.421875 3.8125 -6.421875 C 4.445312 -6.421875 5.015625 -6.28125 5.515625 -6 C 6.023438 -5.71875 6.425781 -5.328125 6.71875 -4.828125 C 7.007812 -4.335938 7.15625 -3.789062 7.15625 -3.1875 C 7.15625 -2.570312 7.007812 -2.015625 6.71875 -1.515625 C 6.425781 -1.023438 6.023438 -0.640625 5.515625 -0.359375 C 5.015625 -0.0859375 4.445312 0.046875 3.8125 0.046875 Z M 3.8125 -0.546875 C 4.320312 -0.546875 4.78125 -0.660156 5.1875 -0.890625 C 5.59375 -1.117188 5.910156 -1.429688 6.140625 -1.828125 C 6.367188 -2.234375 6.484375 -2.6875 6.484375 -3.1875 C 6.484375 -3.675781 6.367188 -4.125 6.140625 -4.53125 C 5.910156 -4.9375 5.59375 -5.25 5.1875 -5.46875 C 4.78125 -5.695312 4.320312 -5.8125 3.8125 -5.8125 C 3.3125 -5.8125 2.859375 -5.695312 2.453125 -5.46875 C 2.046875 -5.25 1.722656 -4.9375 1.484375 -4.53125 C 1.253906 -4.125 1.140625 -3.675781 1.140625 -3.1875 C 1.140625 -2.6875 1.253906 -2.234375 1.484375 -1.828125 C 1.722656 -1.429688 2.046875 -1.117188 2.453125 -0.890625 C 2.859375 -0.660156 3.3125 -0.546875 3.8125 -0.546875 Z M 3.8125 -0.546875 "/></g></g></g><g fill="#ffffff" fill-opacity="1"><g transform="translate(118.022859, 60.970957)"><g><path d="M 5.390625 0 L 3.921875 -2.046875 C 3.765625 -2.023438 3.597656 -2.015625 3.421875 -2.015625 L 1.703125 -2.015625 L 1.703125 0 L 1.03125 0 L 1.03125 -6.359375 L 3.421875 -6.359375 C 4.234375 -6.359375 4.867188 -6.164062 5.328125 -5.78125 C 5.785156 -5.394531 6.015625 -4.863281 6.015625 -4.1875 C 6.015625 -3.6875 5.890625 -3.265625 5.640625 -2.921875 C 5.390625 -2.578125 5.03125 -2.332031 4.5625 -2.1875 L 6.125 0 Z M 3.40625 -2.59375 C 4.03125 -2.59375 4.507812 -2.726562 4.84375 -3 C 5.175781 -3.28125 5.34375 -3.675781 5.34375 -4.1875 C 5.34375 -4.695312 5.175781 -5.085938 4.84375 -5.359375 C 4.507812 -5.640625 4.03125 -5.78125 3.40625 -5.78125 L 1.703125 -5.78125 L 1.703125 -2.59375 Z M 3.40625 -2.59375 "/></g></g></g><g fill="#ffffff" fill-opacity="1"><g transform="translate(127.980738, 60.970957)"><g><path d="M 5.53125 -0.578125 L 5.53125 0 L 1.03125 0 L 1.03125 -6.359375 L 5.40625 -6.359375 L 5.40625 -5.78125 L 1.703125 -5.78125 L 1.703125 -3.515625 L 5 -3.515625 L 5 -2.953125 L 1.703125 -2.953125 L 1.703125 -0.578125 Z M 5.53125 -0.578125 "/></g></g></g></svg>