<svg xmlns="http://www.w3.org/2000/svg" xmlns:xlink="http://www.w3.org/1999/xlink" width="50" zoomAndPan="magnify" viewBox="0 0 37.5 37.499999" height="50" preserveAspectRatio="xMidYMid meet" version="1.0"><defs><clipPath id="7f827ad0bc"><path d="M 2.757812 2.757812 L 34.585938 2.757812 L 34.585938 34.585938 L 2.757812 34.585938 Z M 2.757812 2.757812 " clip-rule="nonzero"/></clipPath></defs><g clip-path="url(#7f827ad0bc)"><path fill="#000000" d="M 13.773438 23.507812 C 19.148438 23.507812 23.507812 19.148438 23.507812 13.773438 C 23.507812 8.394531 19.148438 4.035156 13.773438 4.035156 C 8.394531 4.035156 4.035156 8.394531 4.035156 13.773438 C 4.035156 19.148438 8.394531 23.507812 13.773438 23.507812 Z M 21.996094 21.09375 L 34.332031 33.429688 C 34.582031 33.679688 34.582031 34.085938 34.332031 34.332031 C 34.085938 34.582031 33.679688 34.582031 33.429688 34.332031 L 21.09375 21.996094 C 19.148438 23.730469 16.582031 24.785156 13.773438 24.785156 C 7.6875 24.785156 2.757812 19.855469 2.757812 13.773438 C 2.757812 7.6875 7.6875 2.757812 13.773438 2.757812 C 19.855469 2.757812 24.785156 7.6875 24.785156 13.773438 C 24.785156 16.582031 23.730469 19.148438 21.996094 21.09375 Z M 21.996094 21.09375 " fill-opacity="1" fill-rule="nonzero"/></g></svg>