<svg xmlns="http://www.w3.org/2000/svg" xmlns:xlink="http://www.w3.org/1999/xlink" width="50" zoomAndPan="magnify" viewBox="0 0 37.5 37.499999" height="50" preserveAspectRatio="xMidYMid meet" version="1.0"><defs><clipPath id="5839a35c4b"><path d="M 10 2.757812 L 27 2.757812 L 27 20 L 10 20 Z M 10 2.757812 " clip-rule="nonzero"/></clipPath><clipPath id="dccd207168"><path d="M 4.15625 19 L 33 19 L 33 34.585938 L 4.15625 34.585938 Z M 4.15625 19 " clip-rule="nonzero"/></clipPath></defs><g clip-path="url(#5839a35c4b)"><path fill="#000000" d="M 18.589844 19.265625 C 22.828125 19.265625 26.277344 14.746094 26.277344 10.484375 C 26.277344 6.226562 22.828125 2.757812 18.589844 2.757812 C 14.347656 2.757812 10.898438 6.226562 10.898438 10.484375 C 10.902344 14.746094 14.347656 19.265625 18.589844 19.265625 Z M 18.589844 19.265625 " fill-opacity="1" fill-rule="nonzero"/></g><g clip-path="url(#dccd207168)"><path fill="#000000" d="M 24.359375 19.347656 C 22.867188 20.488281 21.007812 21.167969 18.992188 21.167969 L 18.183594 21.167969 C 16.167969 21.167969 14.308594 20.488281 12.816406 19.347656 C 7.949219 20.136719 4.230469 24.378906 4.230469 29.496094 C 4.230469 32.304688 10.65625 34.585938 18.589844 34.585938 C 26.519531 34.585938 32.949219 32.304688 32.949219 29.496094 C 32.949219 24.378906 29.230469 20.136719 24.359375 19.347656 Z M 24.359375 19.347656 " fill-opacity="1" fill-rule="nonzero"/></g></svg>