<svg xmlns="http://www.w3.org/2000/svg" xmlns:xlink="http://www.w3.org/1999/xlink" width="50" zoomAndPan="magnify" viewBox="0 0 37.5 37.499999" height="50" preserveAspectRatio="xMidYMid meet" version="1.0"><defs><clipPath id="090156db8a"><path d="M 10 2.757812 L 27 2.757812 L 27 20 L 10 20 Z M 10 2.757812 " clip-rule="nonzero"/></clipPath><clipPath id="171ce2e41d"><path d="M 4.15625 19 L 33 19 L 33 34.585938 L 4.15625 34.585938 Z M 4.15625 19 " clip-rule="nonzero"/></clipPath></defs><g clip-path="url(#090156db8a)"><path fill="#ffffff" d="M 18.5 19.085938 C 22.714844 19.085938 26.144531 14.613281 26.144531 10.402344 C 26.144531 6.1875 22.714844 2.757812 18.5 2.757812 C 14.289062 2.757812 10.859375 6.1875 10.859375 10.402344 C 10.859375 14.613281 14.289062 19.085938 18.5 19.085938 Z M 18.5 19.085938 " fill-opacity="1" fill-rule="nonzero"/></g><g clip-path="url(#171ce2e41d)"><path fill="#ffffff" d="M 24.238281 19.164062 C 22.757812 20.292969 20.90625 20.964844 18.902344 20.964844 L 18.097656 20.964844 C 16.097656 20.964844 14.246094 20.292969 12.765625 19.164062 C 7.925781 19.949219 4.230469 24.144531 4.230469 29.203125 C 4.230469 31.984375 10.617188 34.238281 18.5 34.238281 C 26.382812 34.238281 32.773438 31.984375 32.773438 29.203125 C 32.773438 24.144531 29.078125 19.949219 24.238281 19.164062 Z M 24.238281 19.164062 " fill-opacity="1" fill-rule="nonzero"/></g></svg>